<?xml version="1.0" encoding="UTF-8" standalone="no"?>
<svg xmlns="http://www.w3.org/2000/svg" xmlns:xlink="http://www.w3.org/1999/xlink" viewBox="0 0 139.78673 209.06689"><defs><linearGradient id="linear-gradient" x1="110.5162" y1="124.57551" x2="70.40837" y2="163.57363" gradientUnits="userSpaceOnUse"><stop offset="0.32584" stop-color="#fff"/><stop offset="0.88764"/><stop offset="1"/></linearGradient><linearGradient id="White_Black_2" x1="106.44735" y1="62.96536" x2="85.36034" y2="50.91563" gradientUnits="userSpaceOnUse"><stop offset="0" stop-color="#fff"/><stop offset="1"/></linearGradient><linearGradient id="linear-gradient-2" y1="140.99459" x2="19.69549" y2="140.99459" gradientUnits="userSpaceOnUse"><stop offset="0" stop-color="#66afe3"/><stop offset="0.10269" stop-color="#58a2d6"/><stop offset="0.44897" stop-color="#2e79ae"/><stop offset="0.72052" stop-color="#145f95"/><stop offset="0.88202" stop-color="#0a568c"/><stop offset="0.90443" stop-color="#0a5d86"/><stop offset="0.93806" stop-color="#0b7276"/><stop offset="0.97855" stop-color="#0d935c"/><stop offset="1" stop-color="#0ea84c"/></linearGradient><linearGradient id="linear-gradient-3" x1="4.51208" y1="138.29801" x2="138.30809" y2="138.29801" gradientUnits="userSpaceOnUse"><stop offset="0" stop-color="#abebff"/><stop offset="0.03629" stop-color="#9ae0fb"/><stop offset="0.17025" stop-color="#5fbbed"/><stop offset="0.2847" stop-color="#35a0e3"/><stop offset="0.37392" stop-color="#1b8fdd"/><stop offset="0.42697" stop-color="#1189db"/><stop offset="0.67416" stop-color="#0c68ab"/><stop offset="0.73983" stop-color="#0c6caf"/><stop offset="0.81135" stop-color="#0e7aba"/><stop offset="0.88564" stop-color="#108fcc"/><stop offset="0.96133" stop-color="#13aee5"/><stop offset="1" stop-color="#15c0f5"/></linearGradient><mask id="mask" x="1.09199" y="71.50824" width="150.2871" height="142.35939" maskUnits="userSpaceOnUse"><rect x="1.09199" y="101.94774" width="150.2871" height="111.91989" fill="url(#linear-gradient)"/></mask><linearGradient id="linear-gradient-4" x1="106.3253" y1="108.72938" x2="53.05952" y2="142.97163" gradientUnits="userSpaceOnUse"><stop offset="0" stop-color="#6de2f2"/><stop offset="0.49652" stop-color="#80d6f7"/><stop offset="0.88202" stop-color="#8ad0fa"/></linearGradient><linearGradient id="linear-gradient-5" x1="94.30878" y1="180.97606" x2="139.78673" y2="180.97606" gradientUnits="userSpaceOnUse"><stop offset="0.16292" stop-color="#2da8f0"/><stop offset="0.35922" stop-color="#1990d5"/><stop offset="0.57752" stop-color="#077bbe"/><stop offset="0.71348" stop-color="#0073b5"/><stop offset="0.78346" stop-color="#037abc"/><stop offset="0.88846" stop-color="#0a8fd0"/><stop offset="1" stop-color="#14aced"/></linearGradient><linearGradient id="linear-gradient-6" x1="37.6606" y1="126.57243" x2="93.71146" y2="126.57243" gradientUnits="userSpaceOnUse"><stop offset="0.00562" stop-color="#4fd6ff"/><stop offset="0.1676" stop-color="#49cbf7"/><stop offset="0.44899" stop-color="#37afe0"/><stop offset="0.81374" stop-color="#1c81bc"/><stop offset="1" stop-color="#0c67a8"/></linearGradient><linearGradient id="linear-gradient-7" x1="38.35145" y1="107.78326" x2="94.84833" y2="107.78326" gradientUnits="userSpaceOnUse"><stop offset="0" stop-color="#ebfbff"/><stop offset="0.10869" stop-color="#dbf2fa"/><stop offset="0.3196" stop-color="#b3dbef"/><stop offset="0.61172" stop-color="#71b6db"/><stop offset="0.97064" stop-color="#1883c1"/><stop offset="1" stop-color="#107fbf"/></linearGradient><linearGradient id="linear-gradient-8" x1="44.21309" y1="99.88283" x2="91.62973" y2="99.88283" gradientUnits="userSpaceOnUse"><stop offset="0" stop-color="#c28469"/><stop offset="0.05024" stop-color="#c4886c"/><stop offset="0.43238" stop-color="#d5a383"/><stop offset="0.6573" stop-color="#dbad8c"/><stop offset="0.72801" stop-color="#deb394"/><stop offset="0.83525" stop-color="#e7c4a9"/><stop offset="0.96506" stop-color="#f6dfcb"/><stop offset="1" stop-color="#fae7d5"/></linearGradient><linearGradient id="linear-gradient-9" x1="43.73659" y1="110.61818" x2="91.62784" y2="110.61818" gradientUnits="userSpaceOnUse"><stop offset="0" stop-color="#9e5444"/><stop offset="0.07184" stop-color="#a45c4b"/><stop offset="0.48707" stop-color="#c2886e"/><stop offset="0.8103" stop-color="#d4a384"/><stop offset="1" stop-color="#dbad8c"/></linearGradient><linearGradient id="linear-gradient-10" x1="42.99608" y1="46.97432" x2="83.10309" y2="92.15412" gradientUnits="userSpaceOnUse"><stop offset="0" stop-color="#592f26"/><stop offset="0.25128" stop-color="#6a3c31"/><stop offset="0.7225" stop-color="#855142"/><stop offset="1" stop-color="#8f5949"/></linearGradient><linearGradient id="linear-gradient-11" x1="39.5375" y1="44.02286" x2="80.19979" y2="89.82817" gradientUnits="userSpaceOnUse"><stop offset="0.00562" stop-color="#fae7d5"/><stop offset="0.71348" stop-color="#e8b794"/><stop offset="0.80005" stop-color="#ebbc9a"/><stop offset="0.91858" stop-color="#f3ccac"/><stop offset="1" stop-color="#fadabc"/></linearGradient><linearGradient id="linear-gradient-12" x1="19.95919" y1="48.55216" x2="103.68049" y2="48.55216" gradientUnits="userSpaceOnUse"><stop offset="0" stop-color="#302419"/><stop offset="0.54253" stop-color="#422615"/><stop offset="1" stop-color="#4c2712"/></linearGradient><linearGradient id="linear-gradient-13" x1="16.13465" y1="43.76047" x2="107.27328" y2="43.76047" gradientUnits="userSpaceOnUse"><stop offset="0" stop-color="#c79465"/><stop offset="0.01969" stop-color="#c49163"/><stop offset="0.30494" stop-color="#986a47"/><stop offset="0.52696" stop-color="#7d5236"/><stop offset="0.6573" stop-color="#734930"/><stop offset="0.75682" stop-color="#774c33"/><stop offset="0.84962" stop-color="#82553b"/><stop offset="0.93946" stop-color="#956448"/><stop offset="1" stop-color="#a67254"/></linearGradient><linearGradient id="linear-gradient-14" x1="92.83028" y1="211.33244" x2="92.83028" y2="211.33244" gradientUnits="userSpaceOnUse"><stop offset="0" stop-color="#a0f26d"/><stop offset="0.06279" stop-color="#92e66b"/><stop offset="0.34372" stop-color="#57b662"/><stop offset="0.58369" stop-color="#2d935c"/><stop offset="0.77081" stop-color="#137d58"/><stop offset="0.88202" stop-color="#097557"/></linearGradient><mask id="mask-2" x="72.21898" y="11.09905" width="40.10741" height="79.1065" maskUnits="userSpaceOnUse"><polygon points="95.363 11.099 72.219 88.939 81.572 90.206 101.231 89.571 112.326 30.756 95.363 11.099" fill="url(#White_Black_2)"/></mask><linearGradient id="linear-gradient-15" x1="84.22576" y1="50.62497" x2="103.88633" y2="60.6138" gradientUnits="userSpaceOnUse"><stop offset="0.16292" stop-color="#593925"/><stop offset="0.31348" stop-color="#5d3c27"/><stop offset="0.45389" stop-color="#68442d"/><stop offset="0.59034" stop-color="#7b5138"/><stop offset="0.72431" stop-color="#956447"/><stop offset="0.85652" stop-color="#b87d5a"/><stop offset="0.9857" stop-color="#e19a71"/><stop offset="1" stop-color="#e69e74"/></linearGradient><linearGradient id="linear-gradient-16" x1="15.93969" y1="57.79144" x2="106.30688" y2="57.79144" gradientUnits="userSpaceOnUse"><stop offset="0" stop-color="#dba674"/><stop offset="0.21877" stop-color="#dbac67"/><stop offset="0.46629" stop-color="#dbb15d"/><stop offset="0.5941" stop-color="#c59759"/><stop offset="0.73123" stop-color="#b48256"/><stop offset="0.86729" stop-color="#a97655"/><stop offset="1" stop-color="#a67254"/></linearGradient><linearGradient id="linear-gradient-17" x1="21.91562" y1="95.59778" x2="72.64293" y2="95.59778" gradientTransform="translate(-10.65846 -68.97047) rotate(-7.53861)" gradientUnits="userSpaceOnUse"><stop offset="0" stop-color="#e8c8a0"/><stop offset="0.02392" stop-color="#e5c497"/><stop offset="0.18912" stop-color="#d4a85c"/><stop offset="0.33023" stop-color="#c89432"/><stop offset="0.44023" stop-color="#c08818"/><stop offset="0.50562" stop-color="#bd830e"/><stop offset="1" stop-color="#87380b"/></linearGradient></defs><title>3Asset 3</title><g id="Layer_2" data-name="Layer 2"><g id="图层_1" data-name="图层 1"><path d="M19.69549,113.77684S1.83419,115.99654.45919,141.766c-.7949,14.9033-.3164,15.875-.3164,15.875l10.2383,10.5713Z" fill="url(#linear-gradient-2)"/><path d="M134.26,152.35984c-9.3027-11.961-26.9941-31.2998-37.7344-44.0616-3.1621-3.7558-17.6133-2.5078-19.1777-4.76561-4.7539-6.86519,8.0058-13.00979,8.0058-13.00979l-10.4902-.61421c.2852-11.09769.3887-18.40039.3887-18.40039l-26.752,2.9541s3.5254,15.7832-.2031,22.19429c-5.4062,9.27251-8.0996,13.42481-27.7559,16.91121-13.1777,2.33879-17.2011,35.9677-15.748,48.3037,1.3301,11.3349,29.3809,35.5097,55.3789,39.5234,27.4785,6.1328,76.0039,5.0029,77.5742-6.2334C139.594,181.95454,136.47868,155.21334,134.26,152.35984Z" fill="url(#linear-gradient-3)"/><g mask="url(#mask)"><path d="M112.69748,165.99354c11.37892,13.9405,22.37892-11.8808,21.666-12.79191-9.3008-11.96-27.0976-32.14159-37.8379-44.90339-3.1621-3.7558-17.6133-2.5078-19.1777-4.76561-4.7539-6.86519,8.0058-13.00979,8.0058-13.00979l-10.4902-.61421c.2852-11.09769.3887-18.40039.3887-18.40039l-26.752,2.9541s3.5254,15.7832-.2031,22.19429c-5.4062,9.27251-9.92969,21.54011,5.6406,34.03321C61.39868,136.685,87.86158,135.55414,112.69748,165.99354Z" opacity="0.54" fill="url(#linear-gradient-4)"/></g><path d="M134.69358,152.88524s-33.9219,6.1425-40.3848,52.3437c0,0,28.1074,13.5742,44.2617-10.334C138.57048,194.89494,143.094,173.88914,134.69358,152.88524Z" fill="url(#linear-gradient-5)"/><path d="M88.60368,109.02194c-1.9277-15.3584,5.3614-47.0752-48.9355,3.1689,0,0-8.0313,52.21579,8.03321,55.8037,16.06249,3.5967,48.40628-40.792,45.86908-54.9511C93.46508,112.44863,88.68378,109.69474,88.60368,109.02194Z" opacity="0.49" fill="url(#linear-gradient-6)"/><path d="M90.82248,106.06874s6.2598,3.3291,3.168,8.4024c-1.336,2.1894-29.8008,24.35349-49.9356.3174-19.35349-23.1065,16.7539-25.1084,16.7539-25.1084Z" fill="url(#linear-gradient-7)"/><path d="M91.35368,78.69284s.6211,29.2382,0,31.4677c-.6191,2.2198-26.6718,23.20509-47.1406.3164l15.8184-24.789Z" fill="url(#linear-gradient-8)"/><path d="M88.91818,107.57463c-.6113,2.18951-24.8359,20.07421-45.1816-1.42579l.4765,4.3281c20.4688,22.88869,46.5215,1.9034,47.1406-.3164a86.91628,86.91628,0,0,0,.2735-9.997C91.61548,104.265,89.10958,106.89,88.91818,107.57463Z" fill="url(#linear-gradient-9)"/><path d="M101.44158,61.99754c0,6.2724-7.8418,6.1718-10.7793,12.206-1.6738,3.4287,2.3692,13.2275.0098,16.3692-10.3769,13.8212-26.4492,24.0566-39.959,24.0566-21.9765,0-28.8515-27.0684-28.8515-52.6318,0-25.5723,17.8144-46.2911,39.789-46.2911C83.62908,15.70645,101.44158,36.42524,101.44158,61.99754Z" opacity="0.29" fill="url(#linear-gradient-10)"/><path d="M98.42988,60.72894c0,25.5625-28.8496,50.5811-50.72848,52.6318-15.21871,1.4278-27.42581-20.45111-29.32811-49.4609-1.67189-25.5137,5.8652-45.3398,40.2656-49.4619C80.45918,11.82175,98.42988,35.15663,98.42988,60.72894Z" fill="url(#linear-gradient-11)"/><path d="M65.87718,35.03654s-34.416,25.7617-45.918,12.2178c0,0,24.0254-52.3555,61.25-38.0479,1.959.74319,7.9746,6.4707,8.9277,8.7286,0,0,30.2637,12.8115.31252,66.5625l-14.97851,5.8769s8.0039-13.6445-2.5879-34.4902c-4.457-8.76861-11.1152-13.0098-7.0058-20.8477" opacity="0.96" fill="url(#linear-gradient-12)"/><path d="M68.21308,31.24263s-39.0293,25.998-52.0605,11.73041c0,0-2.4258-43.77341,49.1465-42.9619,10.1445.1592,20.1308,3.4893,22.3515,9.35349,0,0,41.377,16.64651,3.9629,73.875l-14.2656,4.28131s11.8887-14.4258-2.9317-36.3047c-5.9375-8.7685-10.54679-12.999-5.8945-21.2422" fill="url(#linear-gradient-13)"/><path d="M92.83028,211.33244" fill="url(#linear-gradient-14)"/><g mask="url(#mask-2)"><path d="M98.72088,17.599c-1.39648,7.4707-7.8144,39.9307-17.4414,60.6865a23.10829,23.10829,0,0,1-3.9316,9.2354l14.2656-4.28131C115.03928,47.40184,107.5764,27.48774,98.72088,17.599Z" fill="url(#linear-gradient-15)"/></g><path d="M81.47478,77.60194c1.7832-6.33,2.0625-16.3964-6.4238-28.9218-4.4473-6.5684-8.1465-10.5908-7.7715-15.6533-2.289,6.54779,1.8926,10.7597,7.1367,18.50679C81.72088,62.31484,82.52758,71.28163,81.47478,77.60194Zm-11.4765-49.8574c-3.7871,2.4668-41.7266,23.4922-54.0586,9.9873,0,0,.6465-1.1289,1.6758-6.4804a43.82785,43.82785,0,0,0-1.4629,12.039c12.0293,13.168,46.1445-7.9355,51.3301-11.2646C67.64868,31.05414,69.51388,28.82463,69.99828,27.74454Zm22.25,52.959L79.2834,84.58734a18.7164,18.7164,0,0,1-1.93551,3.251l14.2656-4.2813c8.5254-13.0488,12.9297-23.958,14.6934-33.0732C104.22288,59.00434,99.90448,68.99163,92.24828,80.70354Z" fill="url(#linear-gradient-16)"/><path d="M23.97289,25.66354S41.23659,3.86663,72.59978,6.433c0,0-18.5039,2.7734-22.7617,6.8555,0,0,2.7051-1.3184,8.52931-.8116,0,0-13.89451,3.7549-19.01171,8.5889,0,0,14.1914-6.3506,24.3926-4.1904,0,0-34.2031,7.4121-37.3946,17.1123,0,0-1.40229-3.3389,7.1133-11.5049l7.5489-5.7959S30.60179,17.74755,23.97289,25.66354Z" fill="url(#linear-gradient-17)"/><path d="M86.803,10.306c2.3906,1.5254,4.8261,4.8155,6.1132,7.293-1.42178-.2285-2.6054-1.8027-4.1914-2.2197a10.655,10.655,0,0,0-3.3183-.7236c.832,2.20989,2.873,3.706,3.5078,6.124a21.54571,21.54571,0,0,1,.2578,5.9726c-1.3789-2.8515-4.2246-8.0439-7.7949-8.5693-.2363,2.0908,1.4824,5.5303,1.8984,7.7188-1.1074-1.1104-2.9804-3.1114-4.70118-2.8741.12109,2.1123,2.28908,4.2227,1.28719,6.3614-.8438-.0987-1.9024-1.5157-2.7188-1.98151-.9922-.57419-2.2246-.87109-2.8398-1.80169-.2598,2.5556.9375,5.0918,1.0488,7.6679a15.48525,15.48525,0,0,1-.418,4.9737c-1.5976-1.0596-1.2832-4.3711-3.0293-5.9043a5.43158,5.43158,0,0,0-3.9492-1.4571c1.6543-2.5576,4.5762-3.747,6.457-6.0049,1.6524-1.9824-.7382-2.72461-2.0586-4.55761.8184-.34669,3.0625.19831,3.7969-.51459,1.1016-1.0703-.2617-2.7656-.07619-3.9336,2.12309-.3477,4.09968,2.0303,5.34178-.6553.834-1.8027-.09178-3.0508-.5722-4.5869,1.10742.2275,3.1523,2.4971,4.2519,1.9219.9004-.4756.5567-2.4873.6348-3.3184a5.56639,5.56639,0,0,1,1.8652,1.3867" fill="#402205" opacity="0.54"/></g></g>
	<metadata>
		<rdf:RDF xmlns:rdf="http://www.w3.org/1999/02/22-rdf-syntax-ns#" xmlns:rdfs="http://www.w3.org/2000/01/rdf-schema#" xmlns:dc="http://purl.org/dc/elements/1.1/">
			<rdf:Description about="https://iconscout.com/legal#licenses" dc:title="3Asset 3" dc:description="3Asset 3" dc:publisher="Iconscout" dc:date="2017-07-04" dc:format="image/svg+xml" dc:language="en">
				<dc:creator>
					<rdf:Bag>
						<rdf:li>John Pham</rdf:li>
					</rdf:Bag>
				</dc:creator>
			</rdf:Description>
		</rdf:RDF>
    </metadata></svg>
